Input #0, mov,mp4,m4a,3gp,3g2,mj2, from '/home/hbattu/projects/huberman-gpt/huberman-audio/mp3/tmpdzfym6o2.mp4':
  Metadata:
    major_brand     : dash
    minor_version   : 0
    compatible_brands: iso6mp41
    creation_time   : 2022-03-09T18:39:24.000000Z
  Duration: 02:14:38.22, start: 0.000000, bitrate: 129 kb/s
    Stream #0:0(und): Audio: aac (LC) (mp4a / 0x6134706D), 44100 Hz, stereo, fltp, 0 kb/s (default)
    Metadata:
      creation_time   : 2022-03-09T18:39:24.000000Z
      handler_name    : ISO Media file produced by Google Inc.
Stream mapping:
  Stream #0:0 -> #0:0 (aac (native) -> mp3 (libmp3lame))
Press [q] to stop, [?] for help
[graph_0_in_0_0 @ 0x55b303ca0380] tb:1/44100 samplefmt:fltp samplerate:44100 chlayout:0x3
Output #0, mp3, to '../huberman-audio/mp3/ouCWNRvPk20.mp3':
  Metadata:
    major_brand     : dash
    minor_version   : 0
    compatible_brands: iso6mp41
    TSSE            : Lavf58.29.100
    Stream #0:0(und): Audio: mp3 (libmp3lame), 44100 Hz, stereo, fltp, delay 1105 (default)
    Metadata:
      creation_time   : 2022-03-09T18:39:24.000000Z
      handler_name    : ISO Media file produced by Google Inc.
      encoder         : Lavc58.54.100 libmp3lame
No more output streams to write to, finishing.
size=  126223kB time=02:14:38.23 bitrate= 128.0kbits/s speed=84.2x    
[AVIOContext @ 0x55b303b8e900] Statistics: 0 seeks, 192 writeouts
video:0kB audio:126223kB subtitle:0kB other streams:0kB global headers:0kB muxing overhead: 0.000268%
Input file #0 (/home/hbattu/projects/huberman-gpt/huberman-audio/mp3/tmpdzfym6o2.mp4):
  Input stream #0:0 (audio): 347900 packets read (129251555 bytes); 347900 frames decoded (356249600 samples); 
  Total: 347900 packets (129251555 bytes) demuxed
Output file #0 (../huberman-audio/mp3/ouCWNRvPk20.mp3):
  Output stream #0:0 (audio): 309245 frames encoded (356249600 samples); 309246 packets muxed (129252205 bytes); 
  Total: 309246 packets (129252205 bytes) muxed
[AVIOContext @ 0x55b303bb8b00] Statistics: 2 seeks, 495 writeouts
[AVIOContext @ 0x55b303b97880] Statistics: 130737779 bytes read, 0 seeks
